<svg
    id="b1edf876-5da0-4179-85bc-2c7718e75d01"
    data-name="Layer 1"
    xmlns="http://www.w3.org/2000/svg"
    width="1153.45"
    height="845.67"
    viewBox="0 0 1153.45 845.67">
    <title>moving forward</title><path
        d="M1169.66,414.15,1039.72,714.78,995.26,817.63c-14.44,33.39-48.57,55.18-86.46,55.18H291.2c-37.89,0-72-21.79-86.46-55.18l-6.2-14.35L30.34,414.15c-17.89-41.4-.79-89,40-111.3l40.8-22.28,23.34-12.75L251.5,203.9l34.08-18.62,43.94-24,50.07-27.35,35.74-19.51,87-47.54L522.29,56l30.38-16.6.85-.45a97.46,97.46,0,0,1,93,0L801,123.36l49.58,27.09h0l50.88,27.79,35.29,19.27,81.67,44.59h0l65.4,35.73h0l45.8,25C1170.45,325.12,1187.55,372.75,1169.66,414.15Z"
        transform="translate(-23.28 -27.16)"
        fill="#506fe4"
        opacity="0.1"/><path
        d="M343.9,164.61c-3.75-.9-8.75-2-14.38-3.32l50.07-27.35c27.81,7.08,54.56,12.28,70.49,11.33,0,0,4.78,8.72-8.74,8.72s-.41,12.14-8.76,12.9-15.11,5.68-21.87,0-11.13-8.72-19.48-7.59-19.89,7.2-23.87,0S366.17,169.91,343.9,164.61Z"
        transform="translate(-23.28 -27.16)"
        fill="#506fe4"
        opacity="0.1"/><path
        d="M748.8,130.31c12.38.73,31.34-2.25,52.24-7l49.58,27.09c-17.55,2.11-15.41-12.8-19.1-6.11-4,7.2-15.52,1.13-23.87,0s-12.72,1.89-19.48,7.59-13.52.75-21.87,0,4.76-12.9-8.76-12.9S748.8,130.31,748.8,130.31Z"
        transform="translate(-23.28 -27.16)"
        fill="#506fe4"
        opacity="0.1"/><path
        d="M1097.15,395.52c13.52,0,8.75-8.73,8.75-8.73C1069,389,973.81,358.1,942.37,347.48L939,256.79c17.09,11.28,42.85,16,55.11,19,22.27,5.3,19.49-12.52,23.46-5.31s15.51,1.13,23.87,0,12.72,1.89,19.48,7.58,13.52.75,21.87,0a5.22,5.22,0,0,0,1.09-.19l-65.4-35.73h0c-32.5-8.74-64.63-19.24-80.93-24.75l-.74-19.84-35.29-19.27.79,42.2c-38.18,12.61-119.92,38-153.5,36,0,0-4.78,8.72,8.74,8.72s.41,12.14,8.76,12.9,15.11,5.69,21.87,0,11.13-8.72,19.48-7.58,19.89,7.2,23.87,0,1.19,10.61,23.46,5.31c10.68-2.55,31.57-6.49,48.09-14.91l1.63,87.31c-33.3,11.2-125.34,40.79-161.51,38.63,0,0-4.77,8.73,8.75,8.73s.4,12.14,8.75,12.89,15.11,5.69,21.87,0,11.14-8.72,19.49-7.58,19.88,7.2,23.86,0,1.19,10.61,23.47,5.31c12.49-3,39-7.87,56-19.6l1.75,93c-35.61,11.88-123.28,39.68-158.38,37.59,0,0-4.78,8.72,8.74,8.72S758,538,766.3,538.8s15.11,5.68,21.87,0,11.13-8.73,19.48-7.59,19.89,7.2,23.87,0,1.19,10.61,23.46,5.31c11.75-2.8,35.9-7.3,52.94-17.6l3.87,205.22h0c-40.23,13.11-78.93,31.66-121,37.33-70.26,9.47-142-18-211.95-17.3l-5.52-148.49c16,7.47,35.16,11.11,45.22,13.51,22.28,5.3,19.5-12.51,23.47-5.31s15.51,1.13,23.86,0,12.73,1.89,19.49,7.59,13.52.75,21.87,0-4.76-12.9,8.76-12.9,8.74-8.72,8.74-8.72c-33.42,2-114.54-23.13-153-35.79l-3.52-94.74c17.09,11.66,43.45,16.52,55.9,19.49,22.27,5.3,19.49-12.51,23.46-5.31s15.52,1.13,23.87,0,12.72,1.89,19.48,7.59,13.52.74,21.88,0-4.77-12.9,8.75-12.9,8.74-8.72,8.74-8.72c-36.92,2.2-132.08-28.7-163.52-39.32l-3.38-90.69c17.1,11.28,42.86,16,55.11,19,22.28,5.3,19.5-12.52,23.47-5.31s15.51,1.13,23.86,0,12.73,1.89,19.49,7.58,13.52.75,21.87,0-4.76-12.89,8.76-12.89,8.74-8.72,8.74-8.72C688.1,331.28,594.17,300.88,562,290l-3.36-90.23c16.66,13.88,46.45,19.32,59.92,22.53,22.28,5.3,19.5-12.51,23.47-5.31s15.51,1.13,23.86,0,12.73,1.89,19.49,7.59,13.52.75,21.87,0-4.76-12.9,8.76-12.9,8.74-8.72,8.74-8.72c-38.65,2.31-141.11-31.66-167.5-40.67l-2.1-56.75c16.25,7.92,36.24,11.7,46.6,14.17,22.27,5.3,19.49-12.52,23.46-5.31s15.52,1.13,23.87,0,12.72,1.89,19.48,7.58,13.52.75,21.87,0-4.76-12.9,8.76-12.9,8.74-8.72,8.74-8.72c-33.83,2-116.51-23.73-154.33-36.24l-.92-24.73L522.29,56l.08,4.24c-4.86,1.65-11.73,4-20,6.64l-87,47.54c8.35,1.14,19.85,7.18,23.82,0s1.19,10.61,23.47,5.31c13.6-3.25,43.87-8.77,60.43-23l1.34,71C485.29,180.62,406.15,205,373.24,203c0,0-4.77,8.72,8.75,8.72s.4,12.14,8.75,12.9,15.12,5.68,21.88,0,11.13-8.72,19.48-7.59,19.89,7.2,23.87,0,1.19,10.61,23.46,5.31c10.17-2.42,29.63-6.12,45.73-13.74l1.59,84.53c-38.18,12.61-119.92,38-153.51,36,0,0-4.77,8.72,8.75,8.72s.4,12.14,8.75,12.89,15.12,5.69,21.88,0,11.13-8.72,19.48-7.58,19.89,7.2,23.87,0,1.19,10.61,23.46,5.31c10.67-2.54,31.57-6.49,48.08-14.91l1.64,87.31C495.84,432,403.8,461.62,367.64,459.47c0,0-4.78,8.72,8.74,8.72s.41,12.14,8.76,12.9,15.11,5.68,21.87,0,11.13-8.72,19.48-7.59,19.89,7.2,23.87,0,1.19,10.61,23.47,5.31c12.48-3,39-7.87,56.05-19.6l1.75,93.05C496,564.15,408.35,591.94,373.24,589.85c0,0-4.77,8.72,8.75,8.72s.4,12.14,8.75,12.9,15.12,5.68,21.88,0,11.13-8.72,19.48-7.59,19.89,7.2,23.87,0,1.19,10.61,23.46,5.31c11.75-2.8,35.9-7.3,52.94-17.6l3,157.29h0l-1.27.28C505.75,755.63,479.5,769,451,774.55c-46.5,9.09-96.38-2.78-143.7-4.66L298.67,538c16,7.47,35.16,11.11,45.23,13.51,22.27,5.3,19.49-12.51,23.46-5.31s15.51,1.13,23.87,0,12.72,1.89,19.48,7.59,13.52.75,21.87,0-4.76-12.9,8.76-12.9,8.74-8.72,8.74-8.72c-33.42,2-114.54-23.13-152.95-35.79l-3.52-94.74c17.08,11.66,43.45,16.52,55.89,19.49,22.28,5.3,19.5-12.51,23.46-5.31s15.52,1.13,23.87,0,12.73,1.89,19.49,7.59,13.52.74,21.87,0-4.77-12.9,8.75-12.9,8.75-8.72,8.75-8.72c-36.93,2.2-132.09-28.7-163.53-39.32l-3.38-90.69c17.1,11.29,42.86,16,55.12,19,22.27,5.3,19.49-12.52,23.46-5.31s15.51,1.13,23.87,0S404,287.3,410.71,293s13.52.74,21.87,0-4.76-12.9,8.76-12.9,8.74-8.72,8.74-8.72c-36.63,2.19-130.57-28.21-162.75-39.07l-1.75-47L251.5,203.9l.59,31.5c-27.89,9.22-79,25.24-117.64,32.42l-23.34,12.75c6.92,2.26-2.38,11.75,5,12.43,8.35.74,15.11,5.68,21.87,0s11.13-8.73,19.48-7.59,19.89,7.2,23.87,0,1.19,10.61,23.46,5.31c10.68-2.54,31.57-6.49,48.09-14.91l1.63,87.31c-33.3,11.2-125.34,40.8-161.51,38.64,0,0-4.77,8.72,8.75,8.72s.4,12.14,8.75,12.9,15.11,5.68,21.87,0,11.14-8.72,19.49-7.59,19.88,7.2,23.86,0,1.19,10.61,23.47,5.31c12.49-3,39-7.87,56.05-19.6L257,494.55c-35.61,11.89-123.28,39.68-158.38,37.59,0,0-4.78,8.72,8.74,8.72s.4,12.14,8.76,12.9,15.11,5.68,21.87,0,11.13-8.72,19.48-7.59,19.89,7.2,23.87,0,1.19,10.61,23.46,5.31c11.75-2.8,35.9-7.3,52.94-17.6l4.49,238.4h0a128.79,128.79,0,0,0-34.67,11,122.92,122.92,0,0,0-29,20l6.2,14.35c14.44,33.39,48.57,55.18,86.46,55.18H908.8c37.89,0,72-21.79,86.46-55.18l44.46-102.85A233.66,233.66,0,0,0,955.93,713h0l-7-190c16,7.47,35.16,11.1,45.23,13.51,22.27,5.3,19.49-12.52,23.46-5.31s15.51,1.13,23.87,0,12.72,1.89,19.48,7.59,13.52.74,21.87,0-4.76-12.9,8.76-12.9,8.74-8.72,8.74-8.72c-33.42,2-114.54-23.13-152.95-35.79l-3.52-94.74c17.08,11.65,43.45,16.52,55.89,19.49,22.28,5.3,19.5-12.52,23.46-5.31s15.52,1.13,23.87,0,12.73,1.89,19.49,7.58,13.52.75,21.87,0S1083.63,395.52,1097.15,395.52Z"
        transform="translate(-23.28 -27.16)"
        fill="#506fe4"
        opacity="0.1"/><path
        d="M920.37,211.13c6.76,44.56-12,84.37-12,84.37s-29.77-32.44-36.53-77,12.05-84.37,12.05-84.37S913.61,166.57,920.37,211.13Z"
        transform="translate(-100 -27.16)"
        fill="#506fe4"/><path
        d="M1046.07,282.15c24.53-.27,44.56,12.88,44.56,12.88s-19.74,13.59-44.27,13.86S1001.8,296,1001.8,296,1021.54,282.41,1046.07,282.15Z"
        transform="translate(-100 -27.16)"
        fill="#506fe4"/><path
        d="M977.09,214.41c-22.83,25.09-27.66,57.88-27.66,57.88s32.18-7.9,55-33,27.66-57.88,27.66-57.88S999.92,189.31,977.09,214.41Z"
        transform="translate(-100 -27.16)"
        fill="#506fe4"/><rect x="219.67" y="219.67" width="699" height="626" rx="16.37" fill="#464353"/>
    <g opacity="0.1"><path
        d="M945.86,571.54,928.28,580l-142,68.46-12.53,6a7,7,0,0,1-9.47-3.67,6.87,6.87,0,0,1-.5-2.59V607.76a7,7,0,0,0-6.95-7H410.23a7,7,0,0,1-7-6.95v-57.1a7,7,0,0,1,7-7h346.6a7,7,0,0,0,6.95-6.95V481.42a6.87,6.87,0,0,1,.5-2.59,7,7,0,0,1,9.49-3.65l12.51,6.09,142,69.18L945.89,559A7,7,0,0,1,945.86,571.54Z"
        transform="translate(-100 -27.16)"/></g><path
        d="M945.86,566.54,928.28,575l-142,68.46-12.53,6a7,7,0,0,1-9.47-3.67,6.87,6.87,0,0,1-.5-2.59V602.76a7,7,0,0,0-6.95-7H410.23a7,7,0,0,1-7-6.95v-57.1a7,7,0,0,1,7-7h346.6a7,7,0,0,0,6.95-6.95V476.42a6.87,6.87,0,0,1,.5-2.59,7,7,0,0,1,9.49-3.65l12.51,6.09,142,69.18L945.89,554A7,7,0,0,1,945.86,566.54Z"
        transform="translate(-100 -27.16)"
        fill="#506fe4"/>
    <g opacity="0.1"></g>
</svg>