<?xml version="1.0" standalone="no"?>
<!DOCTYPE svg PUBLIC "-//W3C//DTD SVG 20010904//EN"
 "http://www.w3.org/TR/2001/REC-SVG-20010904/DTD/svg10.dtd">
<svg version="1.0" xmlns="http://www.w3.org/2000/svg"
 width="483.000000pt" height="158.000000pt" viewBox="0 0 483.000000 158.000000"
 preserveAspectRatio="xMidYMid meet">


<g transform="translate(0.000000,158.000000) scale(0.100000,-0.100000)"
fill="#506fe4" stroke="none">
<path d="M1350 775 l0 -535 80 0 80 0 0 535 0 535 -80 0 -80 0 0 -535z"/>
<path d="M240 740 l0 -500 80 0 79 0 3 153 3 152 60 6 c152 15 224 109 241
312 11 144 -20 254 -90 315 -52 46 -120 62 -258 62 l-118 0 0 -500z m247 360
c45 -27 56 -72 51 -221 -2 -100 -7 -130 -22 -156 -21 -34 -53 -53 -91 -53
l-25 0 0 225 0 225 28 0 c15 0 41 -9 59 -20z"/>
<path d="M922 1047 c-48 -18 -98 -71 -118 -125 -22 -60 -32 -385 -15 -477 16
-84 49 -145 96 -178 36 -24 51 -28 113 -28 174 -1 232 104 232 416 0 226 -29
328 -105 375 -42 26 -155 36 -203 17z m125 -134 c16 -24 18 -54 18 -263 0
-209 -2 -239 -18 -263 -11 -17 -26 -27 -42 -27 -16 0 -31 10 -42 27 -16 24
-18 54 -18 263 0 209 2 239 18 263 11 17 26 27 42 27 16 0 31 -10 42 -27z"/>
<path d="M1759 1032 c-68 -36 -104 -100 -120 -217 -14 -102 -5 -353 15 -418
34 -114 93 -159 201 -159 67 1 126 20 163 54 26 25 52 104 52 160 l0 38 -69 0
-68 0 -5 -50 c-6 -61 -21 -80 -64 -80 -47 0 -64 37 -71 156 l-6 93 133 3 134
3 8 30 c5 17 10 77 11 135 2 81 -2 116 -16 152 -45 116 -180 162 -298 100z
m135 -105 c20 -15 35 -77 36 -149 l0 -48 -71 0 -72 0 6 74 c9 118 46 163 101
123z"/>
<path d="M2417 1046 c-45 -16 -67 -33 -77 -61 -9 -22 -13 -16 -24 38 -6 26 -9
27 -66 27 l-60 0 -2 -405 -3 -405 83 0 84 0 -8 320 -7 321 28 29 c33 35 67 38
95 10 19 -19 20 -33 20 -350 l0 -330 80 0 80 0 0 328 0 329 24 22 c31 30 76
25 93 -9 9 -19 13 -109 13 -347 l0 -323 80 0 80 0 -1 343 c-1 346 -3 374 -39
423 -50 69 -176 70 -244 2 l-30 -30 -20 27 c-37 51 -106 67 -179 41z"/>
<path d="M3191 1048 c-47 -16 -95 -67 -116 -125 -15 -39 -19 -88 -23 -251 -3
-184 -2 -209 17 -272 23 -74 56 -122 103 -146 39 -20 157 -20 196 0 45 23 89
80 108 138 21 68 31 365 15 453 -16 84 -55 159 -96 185 -41 25 -153 35 -204
18z m126 -135 c16 -24 18 -57 21 -253 2 -200 1 -229 -15 -260 -22 -43 -60 -51
-89 -19 -18 20 -19 37 -19 269 0 230 1 249 19 269 27 29 62 27 83 -6z"/>
<path d="M3747 1046 c-111 -41 -147 -137 -147 -396 0 -230 27 -327 106 -383
35 -24 49 -28 111 -28 124 -1 187 54 219 190 20 82 19 379 -1 456 -20 74 -55
129 -97 151 -44 23 -143 28 -191 10z m120 -133 c16 -24 18 -54 18 -269 0 -224
-1 -243 -19 -263 -27 -29 -62 -27 -83 6 -16 24 -18 54 -18 263 0 209 2 239 18
263 23 36 61 36 84 0z"/>
<path d="M4404 1049 c-17 -5 -43 -20 -58 -34 -31 -29 -46 -25 -46 11 0 23 -3
24 -65 24 l-65 0 0 -405 0 -405 80 0 80 0 0 329 0 330 26 20 c31 25 67 27 88
6 24 -24 27 -82 24 -393 l-3 -292 80 0 80 0 -5 357 c-5 337 -6 360 -25 393
-35 60 -109 83 -191 59z"/>
</g>
</svg>
